# Blender v3.0.1 OBJ File: ''
# www.blender.org
mtllib qcone2.mtl
o Cone.001
v -20.000000 0.000001 -10.000000
v -20.000000 0.000002 10.000000
v -20.000000 1.950903 9.807853
v -20.000000 3.826835 9.238795
v -20.000000 5.555704 8.314695
v -20.000000 7.071068 7.071068
v -20.000000 8.314695 5.555704
v -20.000000 9.238796 3.826836
v -20.000000 9.807854 1.950904
v -20.000000 10.000001 -0.000000
v -20.000000 9.807854 -1.950904
v -20.000000 9.238795 -3.826836
v -20.000000 8.314698 -5.555701
v -20.000000 7.071070 -7.071067
v -20.000000 5.555704 -8.314696
v -20.000000 3.826835 -9.238795
v -20.000000 1.950903 -9.807853
v 20.000000 -0.000001 0.000000
v 19.600000 -0.000001 0.000000
v -20.000000 1.931394 9.709775
v -20.000000 0.000001 -9.900000
v -20.000000 8.231549 5.500147
v -20.000000 9.709775 -1.931395
v -20.000000 5.500147 -8.231549
v -20.000000 0.000002 9.900000
v -20.000000 3.788567 9.146407
v -20.000000 7.000357 7.000358
v -20.000000 9.146408 3.788568
v -20.000000 9.900001 -0.000000
v -20.000000 9.146407 -3.788568
v -20.000000 5.500147 8.231548
v -20.000000 7.000359 -7.000356
v -20.000000 3.788567 -9.146408
v -20.000000 8.231551 -5.500144
v -20.000000 9.709775 1.931395
v -20.000000 1.931394 -9.709775
v -20.000000 0.000001 10.000000
v -20.000000 0.000001 9.900000
v -20.000000 0.000002 10.000000
v -20.000000 1.950903 9.807853
v -20.000000 3.826835 9.238795
v -20.000000 5.555704 8.314695
v -20.000000 7.071068 7.071068
v -20.000000 8.314695 5.555704
v -20.000000 9.238796 3.826836
v -20.000000 9.807854 1.950904
v -20.000000 10.000001 -0.000000
v -20.000000 9.807854 -1.950904
v -20.000000 9.238795 -3.826836
v -20.000000 8.314698 -5.555701
v -20.000000 7.071070 -7.071067
v -20.000000 5.555704 -8.314696
v -20.000000 3.826835 -9.238795
v -20.000000 1.950903 -9.807853
v -20.000000 0.000001 -10.000000
v -20.000000 0.000001 -10.000000
v -20.000000 0.000001 -9.900000
v -20.000000 0.000001 -9.900000
v -20.000000 1.931394 9.709775
v -20.000000 0.000002 9.900000
v -20.000000 3.788567 9.146407
v -20.000000 8.231549 5.500147
v -20.000000 7.000357 7.000358
v -20.000000 9.146408 3.788568
v -20.000000 9.709775 -1.931395
v -20.000000 9.900001 -0.000000
v -20.000000 9.146407 -3.788568
v -20.000000 5.500147 8.231548
v -20.000000 5.500147 -8.231549
v -20.000000 7.000359 -7.000356
v -20.000000 3.788567 -9.146408
v -20.000000 8.231551 -5.500144
v -20.000000 9.709775 1.931395
v -20.000000 1.931394 -9.709775
v 20.000000 -0.000001 0.000000
v -20.000000 0.000001 10.000000
v -20.000000 0.000001 10.000000
v -20.000000 0.000001 9.900000
v -20.000000 0.000001 9.900000
v 19.600000 -0.000001 0.000000
vt 0.250000 0.250000
vt 0.250000 0.010000
vt 0.250000 0.010000
vt 0.203178 0.014612
vt 0.158156 0.028269
vt 0.116663 0.050447
vt 0.080294 0.080294
vt 0.050447 0.116663
vt 0.028269 0.158156
vt 0.014612 0.203178
vt 0.010000 0.250000
vt 0.014612 0.296822
vt 0.028269 0.341844
vt 0.050447 0.383337
vt 0.080294 0.419706
vt 0.116663 0.449553
vt 0.158156 0.471731
vt 0.750000 0.012400
vt 0.750000 0.012400
vt 0.750000 0.010000
vt 0.750000 0.010000
vt 0.703178 0.014612
vt 0.658156 0.028269
vt 0.616663 0.050447
vt 0.580294 0.080294
vt 0.550447 0.116663
vt 0.528269 0.158156
vt 0.514612 0.203178
vt 0.510000 0.250000
vt 0.514612 0.296822
vt 0.528269 0.341844
vt 0.550447 0.383337
vt 0.580294 0.419706
vt 0.616663 0.449553
vt 0.658156 0.471731
vt 0.703178 0.485388
vt 0.750000 0.490000
vt 0.750000 0.487600
vt 0.703647 0.483035
vt 0.659074 0.469514
vt 0.617996 0.447557
vt 0.581991 0.418009
vt 0.552443 0.382003
vt 0.530486 0.340926
vt 0.516965 0.296353
vt 0.512400 0.250000
vt 0.516965 0.203647
vt 0.530486 0.159074
vt 0.552443 0.117996
vt 0.581992 0.081991
vt 0.617996 0.052443
vt 0.659074 0.030486
vt 0.703647 0.016965
vt 0.203178 0.485388
vt 0.250000 0.490000
vt 0.250000 0.012400
vt 0.250000 0.250000
vt 0.250000 0.012400
vt 0.203647 0.016965
vt 0.159074 0.030486
vt 0.117997 0.052443
vt 0.081991 0.081991
vt 0.052443 0.117996
vt 0.030486 0.159074
vt 0.016965 0.203647
vt 0.012400 0.250000
vt 0.016965 0.296354
vt 0.030486 0.340926
vt 0.052443 0.382003
vt 0.081991 0.418009
vt 0.117996 0.447557
vt 0.159074 0.469514
vt 0.203647 0.483035
vt 0.250000 0.487600
vt 0.625000 0.625000
vt 0.625000 0.687500
vt 0.625000 0.686875
vt 0.625000 0.625000
vt 0.625000 0.563125
vt 0.625000 0.562500
vn 0.2425 0.0000 0.9701
vn 0.2414 0.0951 0.9657
vn 0.2414 0.2817 0.9286
vn 0.2414 0.4575 0.8558
vn 0.2414 0.6156 0.7501
vn 0.2414 0.7501 0.6156
vn 0.2414 0.8558 0.4575
vn 0.2414 0.9286 0.2817
vn 0.2414 0.9657 0.0951
vn 0.2414 0.9657 -0.0951
vn 0.2414 0.9286 -0.2817
vn 0.2414 0.8558 -0.4575
vn 0.2414 0.7501 -0.6156
vn 0.2414 0.6156 -0.7501
vn 0.2414 0.4575 -0.8558
vn -1.0000 0.0000 0.0000
vn 0.2414 0.2817 -0.9286
vn 0.2414 0.0951 -0.9657
vn -0.2425 0.0000 -0.9701
vn -0.2414 -0.0951 -0.9657
vn -0.2414 -0.2817 -0.9286
vn -0.2414 -0.4575 -0.8558
vn -0.2414 -0.6156 -0.7501
vn -0.2414 -0.7501 -0.6156
vn -0.2414 -0.8558 -0.4575
vn -0.2414 -0.9286 -0.2817
vn -0.2414 -0.9657 -0.0951
vn -0.2414 -0.9657 0.0951
vn -0.2414 -0.9286 0.2817
vn -0.2414 -0.8558 0.4575
vn -0.2414 -0.7501 0.6156
vn -0.2414 -0.6156 0.7501
vn -0.2414 -0.4575 0.8558
vn -0.2414 -0.2817 0.9286
vn -0.2414 -0.0951 0.9657
vn -0.0000 -1.0000 0.0000
usemtl None
s off
f 75/1/1 39/2/1 76/3/1
f 40/4/2 39/2/2 75/1/2
f 41/5/3 40/4/3 75/1/3
f 42/6/4 41/5/4 75/1/4
f 43/7/5 42/6/5 75/1/5
f 43/7/6 75/1/6 44/8/6
f 44/8/7 75/1/7 45/9/7
f 45/9/8 75/1/8 46/10/8
f 75/1/9 47/11/9 46/10/9
f 75/1/10 48/12/10 47/11/10
f 75/1/11 49/13/11 48/12/11
f 75/1/12 50/14/12 49/13/12
f 75/1/13 51/15/13 50/14/13
f 51/15/14 75/1/14 52/16/14
f 52/16/15 75/1/15 53/17/15
f 60/18/16 78/19/16 77/20/16 2/21/16 3/22/16 4/23/16 5/24/16 6/25/16 7/26/16 8/27/16 9/28/16 10/29/16 11/30/16 12/31/16 13/32/16 14/33/16 15/34/16 16/35/16 54/36/16 55/37/16 57/38/16 74/39/16 71/40/16 24/41/16 70/42/16 72/43/16 67/44/16 23/45/16 66/46/16 73/47/16 64/48/16 22/49/16 63/50/16 68/51/16 61/52/16 20/53/16
f 53/17/17 75/1/17 17/54/17
f 17/54/18 75/1/18 56/55/18
f 25/56/19 80/57/19 79/58/19
f 59/59/20 80/57/20 25/56/20
f 26/60/21 80/57/21 59/59/21
f 31/61/22 80/57/22 26/60/22
f 27/62/23 80/57/23 31/61/23
f 27/62/24 62/63/24 80/57/24
f 62/63/25 28/64/25 80/57/25
f 28/64/26 35/65/26 80/57/26
f 80/57/27 35/65/27 29/66/27
f 80/57/28 29/66/28 65/67/28
f 80/57/29 65/67/29 30/68/29
f 80/57/30 30/68/30 34/69/30
f 80/57/31 34/69/31 32/70/31
f 32/70/32 69/71/32 80/57/32
f 69/71/33 33/72/33 80/57/33
f 33/72/34 36/73/34 80/57/34
f 80/57/35 36/73/35 58/74/35
f 18/75/36 37/76/36 38/77/36 19/78/36 21/79/36 1/80/36
