# Blender v3.0.1 OBJ File: 'untitled.blend'
# www.blender.org
mtllib wireframebuilding_thin.mtl
o Cube
v 0.981786 6.000000 -0.981786
v 0.981786 -6.000000 -0.981786
v 0.981786 6.000000 0.981786
v 0.981786 -6.000000 0.981786
v -0.981786 6.000000 -0.981786
v -0.981786 -6.000000 -0.981786
v -0.981786 6.000000 0.981786
v -0.981786 -6.000000 0.981786
v -0.940000 6.000000 -0.857143
v -0.940000 6.000000 -0.940000
v 0.940000 6.000000 0.940000
v -0.940000 6.000000 0.940000
v -0.857143 6.000000 0.940000
v 0.940000 6.000000 0.857143
v 0.940000 6.000000 -0.940000
v 0.857143 6.000000 -0.940000
v -0.940000 -6.000000 0.940000
v -0.940000 -6.000000 0.857143
v 0.940000 -6.000000 0.940000
v 0.940000 -6.000000 -0.940000
v 0.940000 -6.000000 -0.857143
v -0.940000 -6.000000 -0.940000
v -0.857143 -6.000000 -0.940000
v 0.857143 -6.000000 0.940000
v 0.940000 -5.920000 0.981786
v 0.929071 -5.920000 0.981786
v -0.929071 -5.920000 0.981786
v -0.940000 -5.920000 0.981786
v -0.940000 5.920000 0.981786
v 0.854286 -5.920000 0.940000
v 0.940000 5.920000 0.981786
v -0.940000 -5.920000 0.940000
v -0.940000 -4.637333 0.940000
v -0.940000 5.920000 0.940000
v -0.854286 5.920000 0.940000
v -0.940000 -5.920000 -0.981786
v -0.929071 -5.920000 -0.981786
v 0.940000 -5.920000 -0.981786
v 0.929071 -5.920000 -0.981786
v 0.940000 -5.920000 0.940000
v 0.940000 4.637333 0.940000
v 0.940000 5.920000 0.940000
v 0.940000 5.920000 -0.981786
v -0.940000 5.920000 -0.981786
v -0.854286 -5.920000 -0.940000
v 0.940000 -5.920000 -0.940000
v 0.940000 -4.637333 -0.940000
v 0.940000 5.920000 -0.940000
v 0.854286 5.920000 -0.940000
v -0.940000 -5.920000 -0.940000
v -0.940000 4.637333 -0.940000
v -0.940000 5.920000 -0.940000
v -0.940000 5.920000 -0.854286
v 0.940000 5.920000 0.854286
v 0.940000 -5.920000 -0.854286
v -0.940000 -5.920000 0.854286
v -0.981786 -5.920000 0.940000
v -0.981786 -5.920000 0.929071
v -0.981786 -5.920000 -0.940000
v -0.981786 -5.920000 -0.929071
v -0.981786 5.920000 -0.940000
v -0.981786 5.920000 0.940000
v 0.981786 -5.920000 -0.940000
v 0.981786 -5.920000 -0.929071
v 0.981786 -5.920000 0.929071
v 0.981786 -5.920000 0.940000
v 0.981786 5.920000 0.940000
v 0.981786 5.920000 -0.940000
vt 0.875000 0.500000
vt 0.875000 0.750000
vt 0.625000 0.750000
vt 0.630320 0.744680
vt 0.859131 0.744680
vt 0.869680 0.744680
vt 0.869680 0.515869
vt 0.869680 0.505320
vt 0.625000 0.500000
vt 0.640869 0.505320
vt 0.630320 0.505320
vt 0.630320 0.734131
vt 0.376667 0.755320
vt 0.376667 0.756712
vt 0.375000 0.750000
vt 0.625000 1.000000
vt 0.375000 1.000000
vt 0.376667 0.993288
vt 0.376667 0.994680
vt 0.623333 0.994680
vt 0.623333 0.755320
vt 0.376667 0.005320
vt 0.376667 0.006712
vt 0.375000 0.000000
vt 0.625000 0.000000
vt 0.625000 0.250000
vt 0.375000 0.250000
vt 0.376667 0.243288
vt 0.376667 0.244680
vt 0.623333 0.244680
vt 0.623333 0.005320
vt 0.130320 0.744680
vt 0.125000 0.750000
vt 0.125000 0.500000
vt 0.375000 0.500000
vt 0.369680 0.744680
vt 0.369680 0.515869
vt 0.369680 0.505320
vt 0.140869 0.505320
vt 0.130320 0.505320
vt 0.130320 0.734131
vt 0.359131 0.744680
vt 0.376667 0.743289
vt 0.376667 0.744680
vt 0.623333 0.744680
vt 0.623333 0.505320
vt 0.376667 0.505320
vt 0.376667 0.506712
vt 0.376667 0.255320
vt 0.376667 0.256712
vt 0.376667 0.493288
vt 0.376667 0.494680
vt 0.623333 0.494680
vt 0.623333 0.255320
vt 0.386018 0.761018
vt 0.386018 1.000000
vt 0.387538 1.000000
vt 0.387538 0.761398
vt 0.612462 1.000000
vt 0.613982 1.000000
vt 0.613982 0.988982
vt 0.612462 0.988602
vt 0.613982 0.750000
vt 0.612462 0.750000
vt 0.387538 0.750000
vt 0.386018 0.750000
vt 0.387538 0.011398
vt 0.386018 0.011018
vt 0.386018 0.250000
vt 0.387538 0.250000
vt 0.612462 0.250000
vt 0.613982 0.250000
vt 0.613982 0.238982
vt 0.612462 0.238602
vt 0.613982 0.000000
vt 0.612462 0.000000
vt 0.387538 0.000000
vt 0.386018 0.000000
vt 0.387538 0.511398
vt 0.386018 0.511018
vt 0.613982 0.738982
vt 0.612462 0.738602
vt 0.613982 0.500000
vt 0.612462 0.500000
vt 0.386018 0.500000
vt 0.387538 0.500000
vt 0.387538 0.261398
vt 0.386018 0.261018
vt 0.613982 0.488982
vt 0.612462 0.488602
vt 0.875000 0.522731
vt 0.625000 0.522731
vt 0.625000 0.527083
vt 0.636398 0.527083
vt 0.875000 0.527083
vt 0.625000 0.727269
vt 0.875000 0.727269
vt 0.875000 0.722917
vt 0.863602 0.722917
vt 0.625000 0.722917
vt 0.625000 0.027083
vt 0.625000 0.022731
vt 0.375000 0.022731
vt 0.375000 0.027083
vt 0.402083 0.027083
vt 0.375000 0.222917
vt 0.375000 0.227269
vt 0.625000 0.227269
vt 0.625000 0.222917
vt 0.597917 0.222917
vt 0.373547 0.522731
vt 0.126453 0.522731
vt 0.125000 0.522731
vt 0.125000 0.527083
vt 0.136398 0.527083
vt 0.375000 0.527083
vt 0.375000 0.522731
vt 0.125000 0.722917
vt 0.125000 0.727269
vt 0.126453 0.727269
vt 0.373547 0.727269
vt 0.375000 0.727269
vt 0.375000 0.722917
vt 0.363602 0.722917
vt 0.402083 0.527083
vt 0.597917 0.722917
vt 0.847917 0.500000
vt 0.847917 0.511398
vt 0.847917 0.750000
vt 0.852269 0.750000
vt 0.852269 0.500000
vt 0.647731 0.750000
vt 0.652083 0.750000
vt 0.652083 0.738602
vt 0.652083 0.500000
vt 0.647731 0.500000
vt 0.625000 0.977269
vt 0.625000 0.972917
vt 0.402083 0.972917
vt 0.375000 0.972917
vt 0.375000 0.977269
vt 0.375000 0.772731
vt 0.375000 0.777083
vt 0.597917 0.777083
vt 0.625000 0.777083
vt 0.625000 0.772731
vt 0.352269 0.501453
vt 0.352269 0.500000
vt 0.347917 0.500000
vt 0.347917 0.511398
vt 0.347917 0.750000
vt 0.352269 0.750000
vt 0.352269 0.748547
vt 0.147731 0.748547
vt 0.147731 0.750000
vt 0.152083 0.750000
vt 0.152083 0.738602
vt 0.152083 0.500000
vt 0.147731 0.500000
vt 0.147731 0.501453
vt 0.625000 0.477269
vt 0.625000 0.472917
vt 0.402083 0.472917
vt 0.375000 0.472917
vt 0.375000 0.477269
vt 0.375000 0.272731
vt 0.375000 0.277083
vt 0.597917 0.277083
vt 0.625000 0.277083
vt 0.625000 0.272731
vn 0.0000 1.0000 0.0000
vn 0.0000 0.0000 1.0000
vn -1.0000 0.0000 0.0000
vn 0.0000 -1.0000 0.0000
vn 1.0000 0.0000 0.0000
vn 0.0000 0.0000 -1.0000
usemtl Material
s off
f 5/1/1 7/2/1 3/3/1 11/4/1 13/5/1 12/6/1 9/7/1 10/8/1
f 3/3/1 1/9/1 5/1/1 10/8/1 16/10/1 15/11/1 14/12/1 11/4/1
f 25/13/2 26/14/2 4/15/2 3/3/2 7/16/2 8/17/2 27/18/2 28/19/2 29/20/2 31/21/2
f 27/18/2 8/17/2 4/15/2 26/14/2
f 57/22/3 58/23/3 8/24/3 7/25/3 5/26/3 6/27/3 60/28/3 59/29/3 61/30/3 62/31/3
f 6/27/3 8/24/3 58/23/3 60/28/3
f 17/32/4 8/33/4 6/34/4 2/35/4 4/15/4 19/36/4 21/37/4 20/38/4 23/39/4 22/40/4 18/41/4
f 19/36/4 4/15/4 8/33/4 17/32/4 24/42/4
f 2/35/5 1/9/5 3/3/5 4/15/5 65/43/5 66/44/5 67/45/5 68/46/5 63/47/5 64/48/5
f 65/43/5 4/15/5 2/35/5 64/48/5
f 36/49/6 37/50/6 6/27/6 5/26/6 1/9/6 2/35/6 39/51/6 38/52/6 43/53/6 44/54/6
f 2/35/6 6/27/6 37/50/6 39/51/6
f 24/55/6 17/56/6 32/57/6 30/58/6
f 34/59/6 12/60/6 13/61/6 35/62/6
f 13/61/6 11/63/6 42/64/6 35/62/6
f 40/65/6 19/66/6 24/55/6 30/58/6
f 56/67/5 18/68/5 22/69/5 50/70/5
f 52/71/5 10/72/5 9/73/5 53/74/5
f 12/75/5 34/76/5 53/74/5 9/73/5
f 32/77/5 17/78/5 18/68/5 56/67/5
f 55/79/3 21/80/3 19/66/3 40/65/3
f 42/64/3 11/63/3 14/81/3 54/82/3
f 14/81/3 15/83/3 48/84/3 54/82/3
f 20/85/3 21/80/3 55/79/3 46/86/3
f 45/87/2 23/88/2 20/85/2 46/86/2
f 48/84/2 15/83/2 16/89/2 49/90/2
f 49/90/2 16/89/2 10/72/2 52/71/2
f 50/70/2 22/69/2 23/88/2 45/87/2
f 44/91/4 43/92/4 48/93/4 49/94/4 52/95/4
f 31/96/4 29/97/4 34/98/4 35/99/4 42/100/4
f 34/101/5 29/102/5 28/103/5 32/104/5 33/105/5
f 50/106/5 36/107/5 44/108/5 52/109/5 51/110/5
f 39/111/1 37/112/1 36/113/1 50/114/1 45/115/1 46/116/1 38/117/1
f 32/118/1 28/119/1 27/120/1 26/121/1 25/122/1 40/123/1 30/124/1
f 43/92/3 38/117/3 46/116/3 47/125/3 48/93/3
f 25/122/3 31/96/3 42/100/3 41/126/3 40/123/3
f 52/127/4 53/128/4 34/129/4 62/130/4 61/131/4
f 67/132/4 42/133/4 54/134/4 48/135/4 68/136/4
f 62/137/6 34/138/6 33/139/6 32/140/6 57/141/6
f 66/142/6 40/143/6 41/144/6 42/145/6 67/146/6
f 64/147/1 63/148/1 46/149/1 55/150/1 40/151/1 66/152/1 65/153/1
f 58/154/1 57/155/1 32/156/1 56/157/1 50/158/1 59/159/1 60/160/1
f 68/161/2 48/162/2 47/163/2 46/164/2 63/165/2
f 59/166/2 50/167/2 51/168/2 52/169/2 61/170/2
