# Blender v3.0.1 OBJ File: 'untitled.blend'
# www.blender.org
mtllib innerbuilding.mtl
o Cube.004
v -0.850000 5.800000 0.981786
v 0.850000 5.800000 0.981786
v -0.850000 -5.800000 0.981786
v 0.850000 -5.800000 0.981786
v 0.850000 5.800000 -0.981786
v -0.850000 5.800000 -0.981786
v -0.850000 -5.800000 -0.981786
v 0.850000 -5.800000 -0.981786
v -0.981786 5.800000 -0.850000
v -0.981786 5.800000 0.850000
v -0.981786 -5.800000 0.850000
v -0.981786 -5.800000 -0.850000
v 0.981786 5.800000 0.850000
v 0.981786 5.800000 -0.850000
v 0.981786 -5.800000 0.850000
v 0.981786 -5.800000 -0.850000
v -0.857112 5.800000 0.981786
v 0.857112 5.800000 0.981786
v -0.857112 -5.800000 0.981786
v 0.857112 -5.800000 0.981786
v 0.857112 5.800000 -0.981786
v -0.857112 5.800000 -0.981786
v -0.857112 -5.800000 -0.981786
v 0.857112 -5.800000 -0.981786
v -0.857112 -5.800000 0.981786
v 0.857112 -5.800000 0.981786
v 0.857112 5.800000 0.981786
v -0.857112 5.800000 0.981786
v -0.857112 -5.800000 -0.981786
v -0.857112 5.800000 -0.981786
v 0.857112 -5.800000 -0.981786
v 0.857112 5.800000 -0.981786
v 0.850000 5.800000 -0.970000
v -0.850000 5.800000 -0.970000
v -0.850000 5.800000 0.970000
v 0.850000 5.800000 0.970000
v -0.850000 -5.800000 0.970000
v -0.850000 -5.800000 -0.970000
v 0.850000 -5.800000 -0.970000
v 0.850000 -5.800000 0.970000
v 0.970000 5.800000 0.850000
v 0.970000 5.800000 -0.850000
v -0.970000 5.800000 -0.850000
v -0.970000 5.800000 0.850000
v 0.970000 -5.800000 0.850000
v -0.970000 -5.800000 0.850000
v -0.970000 -5.800000 -0.697965
v -0.970000 -5.800000 -0.850000
v 0.970000 -5.800000 -0.850000
vt 0.620833 0.765873
vt 0.620833 0.984127
vt 0.379167 0.984127
vt 0.379167 0.765873
vt 0.379167 0.233221
vt 0.379167 0.016779
vt 0.620833 0.016779
vt 0.620833 0.233221
vt 0.379167 0.516779
vt 0.620833 0.516779
vt 0.620833 0.733221
vt 0.379167 0.733221
vt 0.379167 0.265873
vt 0.620833 0.265873
vt 0.620833 0.484127
vt 0.379167 0.484127
vt 0.379167 0.766779
vt 0.620833 0.766779
vt 0.620833 0.765873
vt 0.379167 0.765873
vt 0.620833 0.984127
vt 0.620833 0.983221
vt 0.379167 0.983221
vt 0.379167 0.984127
vt 0.379167 0.266779
vt 0.620833 0.266779
vt 0.620833 0.265873
vt 0.379167 0.265873
vt 0.620833 0.484127
vt 0.620833 0.483221
vt 0.379167 0.483221
vt 0.379167 0.484127
vt 0.625000 0.523958
vt 0.625000 0.522731
vt 0.875000 0.522731
vt 0.875000 0.523958
vt 0.875000 0.726042
vt 0.875000 0.727269
vt 0.625000 0.727269
vt 0.625000 0.726042
vt 0.375000 0.022731
vt 0.625000 0.022731
vt 0.625000 0.023958
vt 0.375000 0.023958
vt 0.625000 0.227269
vt 0.375000 0.227269
vt 0.375000 0.226042
vt 0.625000 0.226042
vt 0.125000 0.523958
vt 0.125000 0.522731
vt 0.375000 0.522731
vt 0.375000 0.523958
vt 0.375000 0.727269
vt 0.125000 0.727269
vt 0.125000 0.726042
vt 0.375000 0.726042
vt 0.647731 0.750000
vt 0.647731 0.500000
vt 0.648958 0.500000
vt 0.648958 0.750000
vt 0.851042 0.500000
vt 0.852269 0.500000
vt 0.852269 0.750000
vt 0.851042 0.750000
vt 0.375000 0.772731
vt 0.625000 0.772731
vt 0.625000 0.773958
vt 0.375000 0.773958
vt 0.625000 0.977269
vt 0.375000 0.977269
vt 0.375000 0.976042
vt 0.625000 0.976042
vt 0.147731 0.500000
vt 0.148958 0.500000
vt 0.148958 0.522358
vt 0.147731 0.750000
vt 0.148958 0.750000
vt 0.351042 0.500000
vt 0.352269 0.500000
vt 0.352269 0.750000
vt 0.351042 0.750000
vt 0.375000 0.273958
vt 0.375000 0.272731
vt 0.625000 0.272731
vt 0.625000 0.273958
vt 0.625000 0.476042
vt 0.625000 0.477269
vt 0.375000 0.477269
vt 0.375000 0.476042
vt 0.875000 0.523579
vt 0.875000 0.523579
vt 0.873963 0.523579
vt 0.626037 0.523579
vt 0.625000 0.523579
vt 0.625000 0.523579
vt 0.626037 0.726421
vt 0.873963 0.726421
vt 0.875000 0.726421
vt 0.875000 0.726421
vt 0.625000 0.726421
vt 0.625000 0.726421
vt 0.625000 0.023579
vt 0.625000 0.023579
vt 0.375000 0.023579
vt 0.375000 0.023579
vt 0.625000 0.226421
vt 0.625000 0.226421
vt 0.375000 0.226421
vt 0.375000 0.226421
vt 0.373963 0.523579
vt 0.126037 0.523579
vt 0.125000 0.523579
vt 0.125000 0.523579
vt 0.375000 0.523579
vt 0.375000 0.523579
vt 0.125000 0.726421
vt 0.126037 0.726421
vt 0.373963 0.726421
vt 0.375000 0.726421
vt 0.375000 0.726421
vt 0.125000 0.726421
vt 0.389818 0.765464
vt 0.389818 0.984536
vt 0.610182 0.984536
vt 0.610182 0.765464
vt 0.610182 0.234536
vt 0.610182 0.015464
vt 0.389818 0.015464
vt 0.389818 0.214944
vt 0.389818 0.234536
vt 0.389818 0.515464
vt 0.389818 0.734536
vt 0.610182 0.734536
vt 0.610182 0.515464
vt 0.610182 0.484536
vt 0.610182 0.265464
vt 0.389818 0.265464
vt 0.389818 0.484536
vn 0.0000 0.0000 1.0000
vn -1.0000 0.0000 0.0000
vn 1.0000 0.0000 0.0000
vn 0.0000 0.0000 -1.0000
vn 0.0000 1.0000 0.0000
vn 0.0000 -1.0000 0.0000
vn 0.0000 0.5802 -0.8145
vn 0.0000 0.3939 0.9192
vn 0.0000 -0.3939 -0.9192
vn 0.0000 -0.3939 0.9192
usemtl Material.004
s off
f 18/1/1 17/2/1 19/3/1 20/4/1
f 12/5/2 11/6/2 10/7/2 9/8/2
f 16/9/3 14/10/3 13/11/3 15/12/3
f 23/13/4 22/14/4 21/15/4 24/16/4
f 4/17/4 2/18/4 27/19/4 26/20/4
f 28/21/4 1/22/4 3/23/4 25/24/4
f 7/25/1 6/26/1 30/27/1 29/28/1
f 32/29/1 5/30/1 8/31/1 31/32/1
f 33/33/5 5/34/5 6/35/5 34/36/5
f 35/37/5 1/38/5 2/39/5 36/40/5
f 3/41/2 1/42/2 35/43/2 37/44/2
f 6/45/2 7/46/2 38/47/2 34/48/2
f 38/49/6 7/50/6 8/51/6 39/52/6
f 4/53/6 3/54/6 37/55/6 40/56/6
f 8/51/3 5/34/3 33/33/3 39/52/3
f 36/40/3 2/39/3 4/53/3 40/56/3
f 13/57/5 14/58/5 42/59/5 41/60/5
f 43/61/5 9/62/5 10/63/5 44/64/5
f 15/65/1 13/66/1 41/67/1 45/68/1
f 10/69/1 11/70/1 46/71/1 44/72/1
f 12/73/6 48/74/6 47/75/6
f 11/76/6 12/73/6 47/75/6 46/77/6
f 49/78/6 16/79/6 15/80/6 45/81/6
f 48/82/4 12/83/4 9/84/4 43/85/4
f 42/86/4 14/87/4 16/88/4 49/89/4
f 22/90/7 30/91/7 6/92/7 5/93/7 32/94/7 21/95/7
f 2/96/8 1/97/8 28/98/8 17/99/8 18/100/8 27/101/8
f 17/102/2 28/103/2 25/104/2 19/105/2
f 30/106/2 22/107/2 23/108/2 29/109/2
f 8/110/9 7/111/9 29/112/9 23/113/9 24/114/9 31/115/9
f 25/116/10 3/117/10 4/118/10 26/119/10 20/120/10 19/121/10
f 24/114/3 21/95/3 32/94/3 31/115/3
f 18/100/3 20/120/3 26/119/3 27/101/3
f 40/122/4 37/123/4 35/124/4 36/125/4
f 43/126/3 44/127/3 46/128/3 47/129/3 48/130/3
f 49/131/2 45/132/2 41/133/2 42/134/2
f 33/135/1 34/136/1 38/137/1 39/138/1
