# Blender v3.0.1 OBJ File: ''
# www.blender.org
mtllib wireframebuilding.mtl
o Cube
v 0.981786 6.000000 -0.981786
v 0.981786 -6.000000 -0.981786
v 0.981786 6.000000 0.981786
v 0.981786 -6.000000 0.981786
v -0.981786 6.000000 -0.981786
v -0.981786 -6.000000 -0.981786
v -0.981786 6.000000 0.981786
v -0.981786 -6.000000 0.981786
v -0.850000 6.000000 0.850000
v 0.850000 6.000000 -0.850000
v -0.850000 6.000000 -0.850000
v 0.850000 6.000000 0.850000
v 0.850000 -6.000000 0.850000
v -0.850000 -6.000000 -0.850000
v 0.850000 -6.000000 -0.850000
v -0.850000 -6.000000 0.850000
v -0.850000 5.800000 0.981786
v 0.850000 5.800000 0.981786
v -0.850000 -5.800000 0.981786
v 0.850000 -5.800000 0.981786
v 0.850000 5.800000 -0.981786
v -0.850000 5.800000 -0.981786
v -0.850000 -5.800000 -0.981786
v 0.850000 -5.800000 -0.981786
v 0.850000 -5.800000 0.850000
v 0.850000 4.108334 0.850000
v 0.850000 5.800000 0.850000
v -0.850000 -5.800000 0.850000
v -0.850000 -4.108334 0.850000
v -0.850000 5.800000 0.850000
v 0.850000 -5.800000 -0.850000
v 0.850000 -4.108334 -0.850000
v 0.850000 5.800000 -0.850000
v -0.850000 -5.800000 -0.850000
v -0.850000 4.108334 -0.850000
v -0.850000 5.800000 -0.850000
v -0.981786 5.800000 -0.850000
v -0.981786 5.800000 0.850000
v -0.981786 -5.800000 0.850000
v -0.981786 -5.800000 -0.850000
v 0.981786 5.800000 0.850000
v 0.981786 5.800000 -0.850000
v 0.981786 -5.800000 0.850000
v 0.981786 -5.800000 -0.850000
vt 0.858221 0.733221
vt 0.858221 0.516779
vt 0.875000 0.500000
vt 0.875000 0.750000
vt 0.625000 0.750000
vt 0.641779 0.733221
vt 0.641779 0.516779
vt 0.625000 0.500000
vt 0.620833 0.766779
vt 0.379167 0.766779
vt 0.375000 0.750000
vt 0.625000 1.000000
vt 0.375000 1.000000
vt 0.379167 0.983221
vt 0.620833 0.983221
vt 0.375000 0.000000
vt 0.625000 0.000000
vt 0.625000 0.250000
vt 0.375000 0.250000
vt 0.379167 0.233221
vt 0.620833 0.233221
vt 0.620833 0.016779
vt 0.379167 0.016779
vt 0.141779 0.516779
vt 0.141779 0.733221
vt 0.125000 0.750000
vt 0.125000 0.500000
vt 0.375000 0.500000
vt 0.358221 0.733221
vt 0.358221 0.516779
vt 0.379167 0.516779
vt 0.379167 0.733221
vt 0.620833 0.733221
vt 0.620833 0.516779
vt 0.379167 0.266779
vt 0.379167 0.483221
vt 0.620833 0.483221
vt 0.620833 0.266779
vt 0.386018 0.750000
vt 0.386018 1.000000
vt 0.389818 1.000000
vt 0.389818 0.750000
vt 0.610182 1.000000
vt 0.613982 1.000000
vt 0.613982 0.750000
vt 0.610182 0.750000
vt 0.613982 0.000000
vt 0.610182 0.000000
vt 0.610182 0.250000
vt 0.613982 0.250000
vt 0.389818 0.000000
vt 0.386018 0.000000
vt 0.386018 0.250000
vt 0.389818 0.250000
vt 0.389818 0.500000
vt 0.386018 0.500000
vt 0.613982 0.500000
vt 0.610182 0.500000
vt 0.875000 0.522731
vt 0.625000 0.522731
vt 0.625000 0.536458
vt 0.875000 0.536458
vt 0.625000 0.727269
vt 0.875000 0.727269
vt 0.875000 0.713542
vt 0.625000 0.713542
vt 0.625000 0.022731
vt 0.375000 0.022731
vt 0.375000 0.036458
vt 0.411458 0.036458
vt 0.625000 0.036458
vt 0.375000 0.213542
vt 0.375000 0.227269
vt 0.625000 0.227269
vt 0.625000 0.213542
vt 0.588542 0.213542
vt 0.375000 0.536458
vt 0.375000 0.522731
vt 0.125000 0.522731
vt 0.125000 0.536458
vt 0.125000 0.713542
vt 0.125000 0.727269
vt 0.375000 0.727269
vt 0.375000 0.713542
vt 0.411458 0.536458
vt 0.588542 0.713542
vt 0.661458 0.500000
vt 0.647731 0.500000
vt 0.647731 0.750000
vt 0.661458 0.750000
vt 0.838542 0.750000
vt 0.852269 0.750000
vt 0.852269 0.500000
vt 0.838542 0.500000
vt 0.588542 0.786458
vt 0.625000 0.786458
vt 0.625000 0.772731
vt 0.375000 0.772731
vt 0.375000 0.786458
vt 0.411458 0.963542
vt 0.375000 0.963542
vt 0.375000 0.977269
vt 0.625000 0.977269
vt 0.625000 0.963542
vt 0.161458 0.500000
vt 0.147731 0.500000
vt 0.147731 0.750000
vt 0.161458 0.750000
vt 0.338542 0.750000
vt 0.352269 0.750000
vt 0.352269 0.500000
vt 0.338542 0.500000
vt 0.588542 0.286458
vt 0.625000 0.286458
vt 0.625000 0.272731
vt 0.375000 0.272731
vt 0.375000 0.286458
vt 0.411458 0.463542
vt 0.375000 0.463542
vt 0.375000 0.477269
vt 0.625000 0.477269
vt 0.625000 0.463542
vn 0.0000 1.0000 0.0000
vn 0.0000 0.0000 1.0000
vn -1.0000 0.0000 0.0000
vn 0.0000 -1.0000 -0.0000
vn 1.0000 0.0000 0.0000
vn 0.0000 0.0000 -1.0000
usemtl Material
s off
f 9/1/1 11/2/1 5/3/1 7/4/1 3/5/1 12/6/1
f 10/7/1 12/6/1 3/5/1 1/8/1 5/3/1 11/2/1
f 18/9/2 20/10/2 4/11/2 3/5/2 7/12/2 8/13/2 19/14/2 17/15/2
f 19/14/2 8/13/2 4/11/2 20/10/2
f 8/16/3 7/17/3 5/18/3 6/19/3 40/20/3 37/21/3 38/22/3 39/23/3
f 6/19/3 8/16/3 39/23/3 40/20/3
f 14/24/4 16/25/4 8/26/4 6/27/4 2/28/4 4/11/4 13/29/4 15/30/4
f 4/11/4 8/26/4 16/25/4 13/29/4
f 44/31/5 2/28/5 1/8/5 3/5/5 4/11/5 43/32/5 41/33/5 42/34/5
f 43/32/5 4/11/5 2/28/5 44/31/5
f 23/35/6 6/19/6 5/18/6 1/8/6 2/28/6 24/36/6 21/37/6 22/38/6
f 2/28/6 6/19/6 23/35/6 24/36/6
f 13/39/6 16/40/6 28/41/6 25/42/6
f 30/43/6 9/44/6 12/45/6 27/46/6
f 9/47/5 30/48/5 36/49/5 11/50/5
f 28/51/5 16/52/5 14/53/5 34/54/5
f 13/39/3 25/42/3 31/55/3 15/56/3
f 12/45/3 10/57/3 33/58/3 27/46/3
f 33/58/2 10/57/2 11/50/2 36/49/2
f 34/54/2 14/53/2 15/56/2 31/55/2
f 22/59/4 21/60/4 33/61/4 36/62/4
f 18/63/4 17/64/4 30/65/4 27/66/4
f 17/67/5 19/68/5 28/69/5 29/70/5 30/71/5
f 34/72/5 23/73/5 22/74/5 36/75/5 35/76/5
f 31/77/1 24/78/1 23/79/1 34/80/1
f 28/81/1 19/82/1 20/83/1 25/84/1
f 21/60/3 24/78/3 31/77/3 32/85/3 33/61/3
f 20/83/3 18/63/3 27/66/3 26/86/3 25/84/3
f 33/87/4 42/88/4 41/89/4 27/90/4
f 30/91/4 38/92/4 37/93/4 36/94/4
f 26/95/6 27/96/6 41/97/6 43/98/6 25/99/6
f 29/100/6 28/101/6 39/102/6 38/103/6 30/104/6
f 34/105/1 40/106/1 39/107/1 28/108/1
f 25/109/1 43/110/1 44/111/1 31/112/1
f 35/113/2 36/114/2 37/115/2 40/116/2 34/117/2
f 32/118/2 31/119/2 44/120/2 42/121/2 33/122/2
